<svg width="72" height="72" viewBox="0 0 72 72" fill="none" xmlns="http://www.w3.org/2000/svg">
<path d="M55.5 64.5L37.5 19.5M64.5 13.5L7.5 25.5" stroke="#44E284" stroke-width="3"/>
<path d="M7.5 21.9C7.5 16.8595 7.5 14.3393 8.48094 12.4141C9.3438 10.7206 10.7206 9.3438 12.4141 8.48094C14.3393 7.5 16.8595 7.5 21.9 7.5H50.1C55.1405 7.5 57.6607 7.5 59.5859 8.48094C61.2794 9.3438 62.6562 10.7206 63.5191 12.4141C64.5 14.3393 64.5 16.8595 64.5 21.9V50.1C64.5 55.1405 64.5 57.6607 63.5191 59.5859C62.6562 61.2794 61.2794 62.6562 59.5859 63.5191C57.6607 64.5 55.1405 64.5 50.1 64.5H21.9C16.8595 64.5 14.3393 64.5 12.4141 63.5191C10.7206 62.6562 9.3438 61.2794 8.48094 59.5859C7.5 57.6607 7.5 55.1405 7.5 50.1V21.9Z" stroke="white" stroke-width="3" stroke-linecap="round"/>
<path d="M37.5 45.0882C37.5 52.3593 29.4057 57.2013 27.4307 58.2745C27.1598 58.4217 26.8402 58.4217 26.5693 58.2745C24.5943 57.2013 16.5 52.3593 16.5 45.0882C16.5 38.7353 21.5876 34.5 27 34.5C32.6 34.5 37.5 38.7353 37.5 45.0882Z" stroke="white" stroke-width="3"/>
<circle cx="27" cy="45" r="3" fill="white"/>
</svg>
