<svg width="33" height="33" viewBox="0 0 33 33" fill="none" xmlns="http://www.w3.org/2000/svg">
<path fill-rule="evenodd" clip-rule="evenodd" d="M27.8988 9.62566L20.2537 3.97441C18.0175 2.34186 14.9825 2.34186 12.7463 3.97441L5.115 9.62566C3.63748 10.6901 2.75839 12.3972 2.75 14.2182V24.4344C2.83253 27.7251 5.56414 30.3275 8.855 30.2507H24.145C27.4359 30.3275 30.1675 27.7251 30.25 24.4344V14.2044C30.2382 12.3913 29.3654 10.6917 27.8988 9.62566ZM28.1875 24.4344C28.1055 26.5862 26.297 28.2655 24.145 28.1882H8.855C6.70584 28.2579 4.90191 26.5828 4.8125 24.4344V14.2182C4.81984 13.0493 5.38748 11.9549 6.33875 11.2757L13.97 5.63816C15.4771 4.53758 17.5229 4.53758 19.03 5.63816L26.6613 11.2894C27.6117 11.9569 28.1804 13.043 28.1875 14.2044V24.4344ZM10.3125 21.6569H22.6875C23.257 21.6569 23.7188 22.1186 23.7188 22.6882C23.7188 23.2577 23.257 23.7194 22.6875 23.7194H10.3125C9.74296 23.7194 9.28125 23.2577 9.28125 22.6882C9.28125 22.1186 9.74296 21.6569 10.3125 21.6569Z" fill="white"/>
</svg>
