<svg width="33" height="33" viewBox="0 0 33 33" fill="none" xmlns="http://www.w3.org/2000/svg">
<path fill-rule="evenodd" clip-rule="evenodd" d="M26.9225 22.9763L27.2525 24.5438C27.5652 25.899 27.2565 27.323 26.4105 28.427C25.5646 29.531 24.2699 30.1995 22.88 30.25H10.12C8.73012 30.1995 7.43541 29.531 6.58948 28.427C5.74356 27.323 5.43479 25.899 5.74751 24.5438L6.07751 22.9763C6.45706 20.8544 8.28111 19.295 10.4363 19.25H22.5638C24.7189 19.295 26.543 20.8544 26.9225 22.9763ZM22.88 28.1738C23.5782 28.1657 24.2353 27.8422 24.6675 27.2938V27.3075C25.1978 26.6423 25.4045 25.7755 25.2313 24.9425L24.9013 23.375C24.7182 22.2134 23.7389 21.3436 22.5638 21.2988H10.4363C9.26114 21.3436 8.28186 22.2134 8.09876 23.375L7.76876 24.9425C7.59985 25.7711 7.80625 26.6319 8.33251 27.2938C8.76472 27.8422 9.4218 28.1657 10.12 28.1738H22.88Z" fill="white"/>
<path fill-rule="evenodd" clip-rule="evenodd" d="M17.1875 16.5H15.8125C12.7749 16.5 10.3125 14.0376 10.3125 11V7.37002C10.3088 6.1436 10.7944 4.96635 11.6616 4.09914C12.5288 3.23193 13.7061 2.74635 14.9325 2.75002H18.0675C19.2939 2.74635 20.4712 3.23193 21.3384 4.09914C22.2056 4.96635 22.6912 6.1436 22.6875 7.37002V11C22.6875 14.0376 20.2251 16.5 17.1875 16.5ZM14.9325 4.81252C13.52 4.81252 12.375 5.95755 12.375 7.37002V11C12.375 12.8985 13.914 14.4375 15.8125 14.4375H17.1875C19.086 14.4375 20.625 12.8985 20.625 11V7.37002C20.625 6.69173 20.3555 6.04122 19.8759 5.5616C19.3963 5.08197 18.7458 4.81252 18.0675 4.81252H14.9325Z" fill="white"/>
</svg>
