<svg width="27" height="27" viewBox="0 0 27 27" fill="none" xmlns="http://www.w3.org/2000/svg">
<path fill-rule="evenodd" clip-rule="evenodd" d="M23.7303 9.26726C23.9927 9.9063 24.6145 10.3244 25.3056 10.3264C26.2436 10.3339 27 11.0961 27 12.0337V14.9801C27 15.923 26.2352 16.6874 25.2918 16.6874C24.6007 16.6894 23.9789 17.1075 23.7165 17.7465C23.4541 18.3856 23.6029 19.1197 24.0934 19.6063C24.7513 20.2802 24.7513 21.3557 24.0934 22.0296L22.027 24.0948C21.3528 24.7525 20.2768 24.7525 19.6025 24.0948C19.2916 23.7655 18.8571 23.5809 18.4041 23.5854C17.9487 23.5817 17.5106 23.76 17.1873 24.0806C16.864 24.4012 16.6821 24.8375 16.6821 25.2927C16.6821 26.2356 15.9174 27 14.974 27H12.026C11.0826 27 10.3179 26.2356 10.3179 25.2927C10.3179 24.8375 10.136 24.4012 9.81269 24.0806C9.48936 23.76 9.05133 23.5817 8.59592 23.5854C8.14285 23.5809 7.70844 23.7655 7.39745 24.0948C6.7232 24.7525 5.6472 24.7525 4.97296 24.0948L2.90663 22.0296C2.24867 21.3557 2.24867 20.2802 2.90663 19.6063C3.39711 19.1197 3.54585 18.3856 3.28347 17.7465C3.02108 17.1075 2.39928 16.6894 1.70816 16.6874C1.25513 16.6874 0.820652 16.5075 0.500309 16.1873C0.179967 15.8672 0 15.4329 0 14.9801V12.0337C0 11.0907 0.764771 10.3264 1.70816 10.3264C2.39928 10.3244 3.02108 9.9063 3.28347 9.26726C3.54585 8.62821 3.39711 7.8941 2.90663 7.40744C2.24867 6.73354 2.24867 5.65809 2.90663 4.98419L4.97296 2.91892C5.6472 2.26129 6.7232 2.26129 7.39745 2.91892C7.70844 3.24825 8.14285 3.43291 8.59592 3.42835C9.05373 3.43206 9.49387 3.25192 9.8176 2.92835C10.1413 2.60479 10.3216 2.16487 10.3179 1.70729C10.3179 0.764381 11.0826 0 12.026 0H14.9878C15.9311 0 16.6959 0.764381 16.6959 1.70729C16.6922 2.16487 16.8724 2.60479 17.1962 2.92835C17.5199 3.25192 17.96 3.43206 18.4179 3.42835C18.8709 3.43291 19.3053 3.24825 19.6163 2.91892C20.2906 2.26129 21.3666 2.26129 22.0408 2.91892L24.1071 4.98419C24.7651 5.65809 24.7651 6.73354 24.1071 7.40744C23.6167 7.8941 23.4679 8.62821 23.7303 9.26726ZM21.7653 16.949C22.303 15.6386 23.5344 14.7435 24.9475 14.6359L24.9061 12.3779C23.5085 12.2554 22.2964 11.3627 21.7653 10.0648C21.2451 8.76375 21.4833 7.28217 22.3852 6.20959L20.801 4.62621C20.1292 5.18853 19.2803 5.49572 18.4041 5.49363C16.4519 5.48884 14.8206 4.00711 14.6296 2.06527H12.3704C12.1856 4.0102 10.5506 5.49527 8.59592 5.49363C7.71965 5.49572 6.87078 5.18853 6.19898 4.62621L4.65612 6.20959C5.54399 7.29036 5.76623 8.77119 5.23469 10.0648C4.70361 11.3627 3.49153 12.2554 2.09388 12.3779V14.6359C3.49153 14.7584 4.70361 15.651 5.23469 16.949C5.75491 18.25 5.51668 19.7316 4.6148 20.8042L6.19898 22.3876C6.87078 21.8252 7.71965 21.518 8.59592 21.5201C10.5481 21.5249 12.1794 23.0067 12.3704 24.9485H14.6296C14.8018 22.9973 16.4444 21.5054 18.4041 21.5201C19.2803 21.518 20.1292 21.8252 20.801 22.3876L22.3439 20.8042C21.456 19.7234 21.2338 18.2426 21.7653 16.949Z" fill="white"/>
<path fill-rule="evenodd" clip-rule="evenodd" d="M8.73367 13.5069C8.73367 10.8759 10.8676 8.74299 13.5 8.74299C14.7641 8.74299 15.9764 9.2449 16.8703 10.1383C17.7642 11.0317 18.2663 12.2434 18.2663 13.5069C18.2663 16.1379 16.1324 18.2708 13.5 18.2708C10.8676 18.2708 8.73367 16.1379 8.73367 13.5069ZM10.7449 13.5069C10.7449 15.0277 11.9784 16.2606 13.5 16.2606C15.0216 16.2606 16.2551 15.0277 16.2551 13.5069C16.2551 11.9861 15.0216 10.7532 13.5 10.7532C11.9784 10.7532 10.7449 11.9861 10.7449 13.5069Z" fill="white"/>
</svg>
