<svg width="86" height="86" viewBox="0 0 86 86" fill="none" xmlns="http://www.w3.org/2000/svg">
<path d="M23.2917 26.875H34.0417" stroke="#44E284" stroke-width="3" stroke-linecap="round"/>
<path d="M51.6667 51.3334V45.4167C51.6667 43.9601 51.6699 43.0185 51.7631 42.3248C51.8506 41.6742 51.9918 41.4702 52.106 41.356C52.2202 41.2419 52.4241 41.1006 53.0747 41.0132C53.7685 40.9199 54.7101 40.9167 56.1667 40.9167H69.25C70.7066 40.9167 71.6482 40.9199 72.3419 41.0132C72.9926 41.1006 73.1965 41.2419 73.3107 41.356C73.4248 41.4702 73.5661 41.6742 73.6535 42.3248C73.7468 43.0185 73.75 43.9601 73.75 45.4167V51.3334C73.75 52.79 73.7468 53.7316 73.6535 54.4253C73.5661 55.0759 73.4248 55.2798 73.3107 55.394L74.3713 56.4547L73.3107 55.394C73.1965 55.5082 72.9926 55.6494 72.3419 55.7369C71.6482 55.8302 70.7066 55.8334 69.25 55.8334H56.1667C54.7101 55.8334 53.7685 55.8302 53.0747 55.7369C52.4241 55.6494 52.2202 55.5082 52.106 55.394C51.9918 55.2798 51.8506 55.0759 51.7631 54.4253C51.6699 53.7316 51.6667 52.79 51.6667 51.3334Z" stroke="#44E284" stroke-width="3"/>
<path d="M34.9375 15.8334H51.0625C56.8066 15.8334 60.9614 15.8367 64.1296 16.2694C67.2523 16.6959 69.1919 17.5142 70.6388 18.9841C72.089 20.4572 72.8989 22.4373 73.3202 25.6208C73.7469 28.8451 73.75 33.0715 73.75 38.9048V47.0953C73.75 52.9286 73.7469 57.155 73.3202 60.3792C72.8989 63.5627 72.089 65.5429 70.6388 67.016C69.1919 68.4859 67.2523 69.3042 64.1296 69.7307C60.9614 70.1634 56.8066 70.1667 51.0625 70.1667H34.9375C29.1934 70.1667 25.0386 70.1634 21.8704 69.7307C18.7477 69.3042 16.8081 68.4859 15.3612 67.016C13.911 65.5429 13.1011 63.5627 12.6798 60.3792C12.2531 57.155 12.25 52.9286 12.25 47.0953V38.9048C12.25 33.0715 12.2531 28.8451 12.6798 25.6208C13.1011 22.4373 13.911 20.4572 15.3612 18.9841C16.8081 17.5142 18.7477 16.6959 21.8704 16.2694C25.0386 15.8367 29.1934 15.8334 34.9375 15.8334Z" stroke="white" stroke-width="3"/>
</svg>
